<?xml version="1.0" encoding="UTF-8"?>
<svg version="1.1" xmlns="http://www.w3.org/2000/svg" width="512" height="512">
<path d="M0 0 C1.88785247 -0.00576172 1.88785247 -0.00576172 3.81384337 -0.01163983 C5.20281201 -0.01085969 6.5917806 -0.00998092 7.98074913 -0.00901413 C9.46230407 -0.01159928 10.9438583 -0.01461286 12.42541158 -0.01801753 C16.4932582 -0.0260732 20.56108717 -0.0278763 24.62894082 -0.028615 C29.01765874 -0.03046806 33.40636755 -0.03801668 37.79508018 -0.04475021 C47.39026467 -0.058324 56.98544497 -0.0643568 66.58063745 -0.06876087 C72.57392687 -0.07152497 78.56721468 -0.07576264 84.56050301 -0.08026505 C101.15984623 -0.09245659 117.75918816 -0.10275605 134.35853577 -0.10614014 C135.42064635 -0.1063597 136.48275693 -0.10657927 137.57705268 -0.10680549 C138.64167984 -0.10702377 139.706307 -0.10724204 140.8031956 -0.10746694 C142.96047378 -0.1079104 145.11775196 -0.10835696 147.27503014 -0.10880661 C148.88015101 -0.10913875 148.88015101 -0.10913875 150.51769857 -0.10947761 C167.85245373 -0.11342468 185.18716682 -0.13087644 202.52190574 -0.15416613 C220.32663069 -0.17789383 238.13133455 -0.19034264 255.93607557 -0.19150805 C265.92976636 -0.19242403 275.92340234 -0.19815682 285.91707802 -0.21632767 C294.42779444 -0.2317478 302.93843911 -0.23683784 311.44916685 -0.22858956 C315.78887027 -0.22468981 320.12842931 -0.22557961 324.46811485 -0.23964691 C328.44699681 -0.25242631 332.42562647 -0.25115312 336.40450828 -0.2390562 C337.83791357 -0.23710617 339.27133699 -0.24014531 340.70471688 -0.24890056 C360.88043769 -0.36425637 376.52555116 5.5685301 391.36047935 19.25642776 C401.98946054 30.30447272 408.75711913 45.90909148 408.82015038 61.22795486 C408.83088333 63.02782097 408.83088333 63.02782097 408.84183311 64.864048 C408.84452202 66.1670636 408.84721092 67.47007919 408.84998131 68.81258011 C408.85625303 70.20933575 408.86290045 71.60608974 408.86989403 73.00284195 C408.89084498 77.5743381 408.90128503 82.14583426 408.9112606 86.71736526 C408.91531091 88.29531369 408.91942791 89.87326194 408.92361069 91.45121002 C408.94263924 98.86330192 408.95687757 106.27538399 408.96522266 113.68749559 C408.97499966 122.22876871 409.00134092 130.76978301 409.04172355 139.31096494 C409.0719138 145.92432189 409.08669411 152.53760472 409.09000367 159.15102923 C409.09234994 163.09612396 409.10125568 167.04094141 409.12646484 170.98596191 C409.14980326 174.69774944 409.15395598 178.40907819 409.14370346 182.12092018 C409.14297489 184.12323699 409.16202308 186.12553082 409.18176842 188.1277504 C409.13518827 196.21475975 408.36441286 201.85365919 402.9268856 208.15486526 C402.36872154 208.60088089 401.81055748 209.04689651 401.23547935 209.50642776 C400.67989342 209.96791214 400.12430748 210.42939651 399.5518856 210.90486526 C393.88095286 214.60688789 388.26519643 214.97862032 381.67297935 214.13142776 C374.54844764 211.87415039 370.36762428 208.56726086 366.67297935 202.13142776 C365.64983423 199.0619924 365.54094873 196.95939627 365.52821922 193.74406815 C365.52132072 192.62545395 365.51442223 191.50683975 365.50731468 190.35432816 C365.50339462 188.51221756 365.50339462 188.51221756 365.49939537 186.63289261 C365.48913019 184.64807917 365.47886289 182.66326574 365.46851623 180.67845273 C365.45828398 178.54332883 365.45043285 176.40820729 365.4431839 174.27307129 C365.4277178 169.81766511 365.40376618 165.36232968 365.37828636 160.90697098 C365.30712817 148.23688105 365.24741827 135.56675004 365.19617271 122.89656448 C365.16779884 115.89987163 365.13237623 108.90324865 365.08951896 101.9066292 C365.0628527 97.48432052 365.04488203 93.06209087 365.03348172 88.63971782 C365.02214885 85.2285343 364.99804321 81.8174605 364.97595787 78.40633011 C364.97507416 76.58243759 364.97507416 76.58243759 364.97417259 74.72169876 C364.89780455 65.79850873 364.7517823 57.1700417 358.67297935 50.13142776 C352.33158312 45.13148074 346.64394885 44.00827153 338.61589813 44.00279331 C337.41756415 43.99956887 336.21923016 43.99634442 334.98458302 43.99302226 C333.67681271 43.99457087 332.3690424 43.99611947 331.02164268 43.997715 C329.61148355 43.99584601 328.20132494 43.99354495 326.79116714 43.99084967 C322.92082397 43.98473624 319.05050241 43.98486473 315.18015552 43.98604405 C311.00419644 43.98624817 306.82824429 43.98072825 302.65228844 43.97598648 C294.47285664 43.96768207 286.29343206 43.96493174 278.1139964 43.9643741 C271.4656558 43.96389888 264.81731758 43.96184383 258.16897774 43.95867348 C239.31951601 43.94986779 220.47005998 43.94525401 201.62059619 43.94600395 C200.6045379 43.94604391 199.58847962 43.94608386 198.5416317 43.94612503 C197.01568356 43.94618635 197.01568356 43.94618635 195.45890819 43.94624891 C178.96857536 43.94665545 162.47826536 43.93708379 145.98793913 43.92298666 C129.05560312 43.90862587 112.12327823 43.9017163 95.19093597 43.90258044 C85.68475879 43.90291249 76.17860555 43.90016171 66.67243385 43.88940239 C58.57955947 43.88030135 50.48671988 43.87811892 42.39384259 43.88491181 C38.26529221 43.8881789 34.13680859 43.88822686 30.00826454 43.87955856 C26.2270136 43.87170111 22.44588245 43.87311726 18.66463445 43.8818427 C16.6527069 43.88410589 14.64077566 43.87654315 12.6288625 43.86860305 C3.70308087 43.90270871 -4.20257208 44.11522675 -11.32702065 50.13142776 C-17.40982848 57.67739749 -17.47710669 65.45021295 -17.46073341 74.79619217 C-17.46413175 76.22896537 -17.46413175 76.22896537 -17.46759874 77.69068348 C-17.47391365 80.88171872 -17.47311099 84.0727112 -17.47228432 87.26375198 C-17.47527735 89.55557179 -17.47868021 91.8473911 -17.48246193 94.13920975 C-17.49129084 100.35821215 -17.49363956 106.57720079 -17.49427772 112.79620886 C-17.49498877 116.68271115 -17.49712413 120.56920994 -17.49977493 124.45571136 C-17.50854705 137.31774786 -17.51319511 150.17977323 -17.51244446 163.04181229 C-17.51238452 164.08076423 -17.51238452 164.08076423 -17.51232338 165.14070511 C-17.51226206 166.18093194 -17.51226206 166.18093194 -17.5121995 167.24217345 C-17.51179305 178.48095224 -17.52136381 189.71969753 -17.53546175 200.95846663 C-17.54983825 212.51085216 -17.55654826 224.06321703 -17.55586797 235.61561215 C-17.5556131 242.09641274 -17.55845852 248.5771754 -17.56904602 255.05796814 C-17.57873202 261.15319412 -17.57880268 267.24834592 -17.57152939 273.34357452 C-17.57048422 275.57803074 -17.57284238 277.81249158 -17.57888985 280.04693985 C-17.5866222 283.10227885 -17.58195663 286.15736246 -17.5742588 289.21269608 C-17.57940237 290.09218757 -17.58454593 290.97167906 -17.58984536 291.8778218 C-17.54987692 299.08025736 -17.25595741 306.93534398 -12.20202065 312.50642776 C-11.66319252 313.13291214 -11.1243644 313.75939651 -10.56920815 314.40486526 C-2.08490566 320.9380738 8.36570643 319.54290135 18.5206356 319.48299026 C26.5763729 319.57994999 33.02494019 320.2826019 39.67297935 325.13142776 C44.87070563 330.62073565 45.8213697 335.70957637 45.84656334 343.01179886 C45.85325035 343.81375183 45.85993736 344.6157048 45.86682701 345.44195938 C45.88087527 347.18364189 45.89277004 348.92534279 45.90277481 350.66705322 C45.91918904 353.42433979 45.94242724 356.18149026 45.96767235 358.93870926 C46.03843576 366.77827037 46.09855763 374.61788699 46.149786 382.45759964 C46.1815984 387.25274451 46.22287949 392.04773268 46.26998138 396.84275055 C46.28598746 398.66954223 46.29831547 400.49636999 46.30688858 402.32321167 C46.31905876 404.87972527 46.34321572 407.43587127 46.37000084 409.99226761 C46.37058998 410.74568939 46.37117912 411.49911118 46.37178612 412.27536392 C46.44428086 417.50388776 46.90124008 421.35968849 50.67297935 425.13142776 C53.91654512 425.8855613 53.91654512 425.8855613 57.67297935 425.13142776 C64.11994879 420.62284985 69.57261608 414.34683319 75.0831356 408.77132034 C76.47250535 407.3723124 77.86187809 405.97330742 79.25136375 404.57441461 C80.72937943 403.08555207 82.20617365 401.59548679 83.68271446 400.10516167 C86.77307535 396.98672789 89.86905125 393.87390912 92.96619225 390.76221085 C94.03075932 389.69250149 95.0953192 388.62278499 96.15987206 387.55306149 C96.95888907 386.75016613 96.95888907 386.75016613 97.77404785 385.93105066 C104.97194671 378.6972252 112.16496728 371.45859926 119.34778404 364.20979691 C124.20988579 359.30311989 129.07914179 354.40366436 133.95653629 349.51218718 C136.5309209 346.92975786 139.1015027 344.34378448 141.66324425 341.74880791 C144.51896184 338.85609648 147.39017153 335.97924725 150.2628231 333.10335159 C151.10046196 332.24976059 151.93810081 331.39616959 152.80112267 330.51671219 C158.172034 325.17334627 163.09961206 320.90890021 170.79797935 319.60017776 C179.17023005 319.69118049 184.44394977 320.97415439 190.48547935 326.88142776 C194.4878452 332.82779988 196.86721369 338.8336583 195.67297935 346.13142776 C193.30871715 354.42451092 187.7221732 359.78981668 181.73889732 365.69661331 C180.71901952 366.72163825 179.700214 367.74773101 178.68239403 368.77479935 C175.93112691 371.54449081 173.16449402 374.29832998 170.39416456 377.04893851 C167.48555582 379.94107851 164.58964929 382.84589189 161.6918087 385.74881363 C156.82320432 390.62193088 151.94453521 395.4847909 147.0596981 400.34163284 C141.42946133 405.93984859 135.81539745 411.55388966 130.2097882 417.17675751 C124.79749019 422.60497757 119.37387991 428.02175915 113.94510841 433.43350029 C111.64424387 435.72753043 109.34732721 438.0254062 107.05359077 440.32656288 C104.34583082 443.04204323 101.62822094 445.74728329 98.90303421 448.44527054 C97.91045289 449.43102586 96.92115671 450.42010319 95.93561935 451.41290092 C84.14293387 463.28234984 71.56241814 470.4394037 54.48547935 470.56892776 C41.52946394 470.34698318 27.95594048 465.94659561 18.3253231 456.95174026 C5.74440406 443.09190983 2.33252342 429.81905731 2.47766685 411.47127151 C2.48140462 410.07166116 2.48424798 408.67204816 2.48624229 407.27243423 C2.49381875 403.6178939 2.5134145 399.96351668 2.53565025 396.30904007 C2.55623894 392.56821778 2.56527165 388.82736871 2.5753231 385.08650589 C2.59666711 377.76807276 2.63072911 370.44977326 2.67297935 363.13142776 C1.92242271 363.13913193 1.17186607 363.14683609 0.39856529 363.15477371 C-1.08208412 363.1637619 -1.08208412 363.1637619 -2.59264565 363.17293167 C-3.57007729 363.18063583 -4.54750893 363.18834 -5.55455971 363.19627762 C-20.24262855 362.85271313 -34.06126535 354.00176137 -44.32702065 344.13142776 C-56.09346583 331.06789413 -61.6567741 315.91703481 -61.58771706 298.48706436 C-61.5915426 297.45061903 -61.59536815 296.41417369 -61.59930962 295.34632093 C-61.60958387 291.89206911 -61.60565805 288.43798526 -61.60167885 284.98372269 C-61.60602842 282.4994326 -61.61121239 280.01514385 -61.61716652 277.53085709 C-61.62915403 271.49412945 -61.63171101 265.4574672 -61.62936626 259.42073365 C-61.62757934 254.51067245 -61.62934073 249.60062471 -61.6335907 244.69056511 C-61.63418589 243.99030744 -61.63478108 243.29004977 -61.6353943 242.56857217 C-61.63660612 241.14573675 -61.63782026 239.72290133 -61.63903668 238.30006591 C-61.64990062 224.97144889 -61.64775528 211.6428572 -61.64165183 198.31423876 C-61.63648486 186.13994991 -61.64773433 173.96574113 -61.66675005 161.79146811 C-61.68615619 149.27058027 -61.69437952 136.74973026 -61.6906268 124.2288273 C-61.68871881 117.20747989 -61.69116285 110.18620059 -61.70534134 103.16486549 C-61.7185448 96.55988427 -61.71595749 89.95503634 -61.70293045 83.35004616 C-61.70056919 80.93140483 -61.70328311 78.51275218 -61.71155357 76.09412384 C-61.78314259 53.524072 -58.85873357 34.91261636 -42.57702065 17.88142776 C-30.88419496 6.76972143 -16.26986074 0.01869481 0 0 Z " fill="#000000" transform="translate(82.3270206451416,20.868572235107422)"/>
<path d="M0 0 C5.80274294 3.36010988 9.5017782 8.15812993 11.6875 14.4375 C11.92800903 16.86103821 11.92800903 16.86103821 11.91455078 19.41137695 C11.91439972 20.37199539 11.91424866 21.33261383 11.91409302 22.32234192 C11.90377045 23.3464769 11.89344788 24.37061188 11.8828125 25.42578125 C11.8799826 26.48411667 11.87715271 27.54245209 11.87423706 28.63285828 C11.8630629 32.00535498 11.83796307 35.37758387 11.8125 38.75 C11.80246664 41.0397097 11.79334141 43.32942357 11.78515625 45.61914062 C11.7631326 51.22535143 11.72968236 56.83140658 11.6875 62.4375 C12.27108276 62.42861755 12.85466553 62.41973511 13.45593262 62.4105835 C19.55580809 62.32176475 25.65549844 62.26162307 31.75585938 62.21777344 C34.02937284 62.19771683 36.3028351 62.17046462 38.57617188 62.13574219 C41.85299349 62.08696288 45.12913025 62.06447103 48.40625 62.046875 C49.91922668 62.01590729 49.91922668 62.01590729 51.46276855 61.98431396 C58.74872726 61.98202192 64.13038828 63.36794607 69.7109375 68.18359375 C70.15695312 68.74175781 70.60296875 69.29992187 71.0625 69.875 C71.75472656 70.70837891 71.75472656 70.70837891 72.4609375 71.55859375 C76.16296013 77.2295265 76.53469256 82.84528293 75.6875 89.4375 C73.43022262 96.56203171 70.12333309 100.74285508 63.6875 104.4375 C60.75831707 105.41389431 58.89724262 105.55886181 55.84887695 105.55102539 C54.37769157 105.55091209 54.37769157 105.55091209 52.87678528 105.55079651 C51.82045395 105.54563522 50.76412262 105.54047394 49.67578125 105.53515625 C48.59241989 105.5337413 47.50905853 105.53232635 46.39286804 105.53086853 C42.92855075 105.52526559 39.4642978 105.51271258 36 105.5 C33.65299572 105.49498538 31.30599044 105.49042241 28.95898438 105.48632812 C23.20180092 105.47529521 17.44465506 105.4585542 11.6875 105.4375 C11.69860306 106.01664154 11.70970612 106.59578308 11.72114563 107.19247437 C11.83239304 113.26015688 11.90743621 119.32754631 11.9621582 125.39599609 C11.98718909 127.65588157 12.02122438 129.91568702 12.06469727 132.17529297 C12.12585233 135.43737619 12.15382502 138.69838245 12.17578125 141.9609375 C12.21449089 143.45843033 12.21449089 143.45843033 12.25398254 144.98617554 C12.25677195 152.07862349 10.73467288 157.54435353 6.6875 163.4375 C0.70245978 169.15110503 -5.05495279 169.80432835 -13.015625 169.70703125 C-18.63359236 169.24774245 -22.27794574 167.65498567 -26.09375 163.49609375 C-29.67347966 158.91167582 -31.44119152 155.49850245 -31.42602539 149.59887695 C-31.42594986 148.6180867 -31.42587433 147.63729645 -31.42579651 146.62678528 C-31.42063522 145.57045395 -31.41547394 144.51412262 -31.41015625 143.42578125 C-31.4087413 142.34241989 -31.40732635 141.25905853 -31.40586853 140.14286804 C-31.40026559 136.67855075 -31.38771258 133.2142978 -31.375 129.75 C-31.36998538 127.40299572 -31.36542241 125.05599044 -31.36132812 122.70898438 C-31.35029521 116.95180092 -31.3335542 111.19465506 -31.3125 105.4375 C-31.90861084 105.44638245 -32.50472168 105.45526489 -33.11889648 105.4644165 C-39.34853483 105.55322072 -45.57799202 105.61337105 -51.80810547 105.65722656 C-54.13011993 105.67728577 -56.45208423 105.70453991 -58.77392578 105.73925781 C-62.12024345 105.78802541 -65.46589059 105.81052643 -68.8125 105.828125 C-69.8430249 105.84877014 -70.8735498 105.86941528 -71.93530273 105.89068604 C-78.27423678 105.89263944 -83.02346539 105.07392979 -88.3125 101.4375 C-90.37109375 99.3671875 -90.37109375 99.3671875 -91.75 97.3125 C-92.22308594 96.62929688 -92.69617188 95.94609375 -93.18359375 95.2421875 C-95.47015977 91.58684666 -95.50768805 89.01764442 -95.5625 84.6875 C-95.58828125 83.47578125 -95.6140625 82.2640625 -95.640625 81.015625 C-95.05386362 74.61713183 -92.14370191 70.51718161 -87.3125 66.4375 C-81.04542802 62.22930002 -75.42655867 61.89550731 -68.03125 62.046875 C-66.97715942 62.05253479 -65.92306885 62.05819458 -64.83703613 62.06402588 C-61.49504746 62.08628266 -58.15416053 62.13646023 -54.8125 62.1875 C-52.5364739 62.20757877 -50.26043087 62.22582712 -47.984375 62.2421875 C-42.42671218 62.2861122 -36.86968483 62.35291663 -31.3125 62.4375 C-31.31916183 61.83694794 -31.32582367 61.23639587 -31.33268738 60.61764526 C-31.39916078 54.35582849 -31.44435047 48.0941123 -31.47729492 41.83203125 C-31.49236261 39.49637784 -31.51282049 37.16075263 -31.53881836 34.82519531 C-31.57528958 31.46412181 -31.5922469 28.10342308 -31.60546875 24.7421875 C-31.62095261 23.70134003 -31.63643646 22.66049255 -31.65238953 21.58810425 C-31.65400106 14.61429903 -30.69273784 10.29378541 -26.125 4.8125 C-18.47832701 -1.64469053 -9.57973876 -4.23120393 0 0 Z " fill="#000000" transform="translate(415.3125,278.5625)"/>
</svg>
