<?xml version="1.0" encoding="UTF-8"?>
<svg version="1.1" xmlns="http://www.w3.org/2000/svg" width="512" height="512">
<path d="M0 0 C15.84 0 31.68 0 48 0 C48 15.18 48 30.36 48 46 C101.79 46 155.58 46 211 46 C211 61.84 211 77.68 211 94 C188.23 94 165.46 94 142 94 C141.67 96.31 141.34 98.62 141 101 C140.42697197 102.93409204 139.793137 104.85115368 139.1015625 106.74609375 C138.51507935 108.35411865 138.51507935 108.35411865 137.91674805 109.99462891 C137.49047119 111.13077637 137.06419434 112.26692383 136.625 113.4375 C136.17874268 114.63036621 135.73248535 115.82323242 135.27270508 117.05224609 C118.52805937 161.08824347 94.58279811 202.12545609 63.61499023 237.65136719 C61.05148652 240.62089914 58.97389888 243.61784942 57 247 C58.23375366 248.12656006 58.23375366 248.12656006 59.49243164 249.27587891 C70.96565979 259.83060989 81.96770762 270.84801914 92.96313477 281.89447021 C95.45593751 284.39769575 97.95174715 286.89791985 100.44726562 289.3984375 C105.30103652 294.26277843 110.15160436 299.13030154 115 304 C113.13690118 310.46763635 111.05543945 316.78727888 108.64453125 323.0703125 C108.18478157 324.28096878 108.18478157 324.28096878 107.71574402 325.51608276 C106.75125436 328.05364304 105.78197424 330.58934049 104.8125 333.125 C104.15137261 334.86185735 103.4905626 336.59883556 102.83007812 338.3359375 C101.22371016 342.55869468 99.61304804 346.77979027 98 351 C94 351 94 351 92.43021011 349.92240143 C91.92506756 349.4135717 91.419925 348.90474197 90.8994751 348.38049316 C90.31339981 347.79991653 89.72732452 347.2193399 89.12348938 346.62117004 C88.1772596 345.65336861 88.1772596 345.65336861 87.21191406 344.66601562 C86.53833359 343.99301926 85.86475311 343.32002289 85.17076111 342.62663269 C82.94277299 340.39585394 80.72929251 338.15123284 78.515625 335.90625 C76.97521769 334.35838385 75.4339259 332.81139744 73.89178467 331.26525879 C69.83215057 327.19034056 65.78467022 323.10355357 61.73956299 319.01422119 C57.61096054 314.84472646 53.47103394 310.68650992 49.33203125 306.52734375 C41.21019942 298.36259193 33.10115622 290.18526314 25 282 C21.3601792 283.53370582 19.05949332 285.70542172 16.29394531 288.49919128 C15.83599201 288.95896356 15.37803871 289.41873584 14.90620804 289.89244062 C13.37538303 291.4316683 11.85184445 292.97791042 10.328125 294.52416992 C9.23105917 295.62998653 8.13351285 296.73532663 7.03552246 297.84022522 C4.67343148 300.21879855 2.31434002 302.60029386 -0.04260254 304.98396873 C-3.76742223 308.75013125 -7.50145061 312.50707022 -11.23730469 316.26228333 C-21.85865083 326.94123112 -32.4698922 337.63015014 -43.06640625 348.33374023 C-48.91994041 354.24626403 -54.7823214 360.14986557 -60.65463638 366.04373819 C-64.37350685 369.77728301 -68.08100623 373.5216607 -71.78063965 377.27426374 C-74.08042432 379.60170635 -76.3905358 381.9186755 -78.70378113 384.23273277 C-79.77726175 385.31079787 -80.84641953 386.39318668 -81.91096497 387.48007584 C-83.36072545 388.95903145 -84.82495189 390.42194353 -86.29394531 391.88175964 C-87.11098938 392.70601031 -87.92803345 393.53026098 -88.76983643 394.37948895 C-91 396 -91 396 -93.1905098 395.83846092 C-95.3310646 394.84659507 -96.64120663 393.71976214 -98.29980469 392.04077148 C-98.92014587 391.4202037 -99.54048706 390.79963593 -100.17962646 390.16026306 C-100.83706848 389.48733719 -101.4945105 388.81441132 -102.171875 388.12109375 C-102.8542926 387.4344313 -103.53671021 386.74776886 -104.23980713 386.04029846 C-106.41701196 383.84630585 -108.58355281 381.64211084 -110.75 379.4375 C-112.22456971 377.94788366 -113.69982213 376.4589428 -115.17578125 374.97070312 C-118.79182176 371.32159192 -122.39833288 367.66329621 -126 364 C-124.43623278 359.98926349 -121.61391861 357.60837222 -118.4621582 354.83325195 C-110.7053041 347.83352122 -103.34689266 340.46173989 -95.98033714 333.05550194 C-93.54740273 330.60959308 -91.11117334 328.16700694 -88.67414856 325.72517395 C-83.50908013 320.54878889 -78.34799709 315.36844185 -73.1875 310.1875 C-67.18301695 304.15931688 -61.17685786 298.13282285 -55.16646767 292.11052895 C-52.77818718 289.71581571 -50.39296092 287.31808951 -48.00785828 284.92021179 C-46.53427802 283.44299691 -45.060556 281.96592342 -43.58666992 280.48901367 C-42.93455032 279.83172775 -42.28243073 279.17444183 -41.61054993 278.49723816 C-37.78579017 274.6720458 -33.84559712 271.04118352 -29.74229908 267.51589584 C-27.41655861 265.49237396 -25.23433863 263.34707709 -23.0625 261.16015625 C-22.23105469 260.32548828 -21.39960938 259.49082031 -20.54296875 258.63085938 C-19.70378906 257.78330078 -18.86460937 256.93574219 -18 256.0625 C-16.69482422 254.75055664 -16.69482422 254.75055664 -15.36328125 253.41210938 C-13.23986451 251.27702551 -11.11883622 249.13962795 -9 247 C-10.86100837 243.01716416 -13.47530929 240.01226664 -16.375 236.75 C-40.12040491 209.4153392 -58.78551801 178.05557338 -74.796875 145.70703125 C-75.43641113 144.41502808 -75.43641113 144.41502808 -76.08886719 143.09692383 C-77 141 -77 141 -77 139 C-61.16 139 -45.32 139 -29 139 C-26.9375 142.75375 -24.875 146.5075 -22.75 150.375 C-9.56912416 174.05346896 6.26792353 195.53991177 24 216 C37.82553117 201.85829245 49.42490943 185.67610435 60 169 C60.69867188 167.90816406 61.39734375 166.81632813 62.1171875 165.69140625 C76.02467161 143.4797525 87.05943165 119.58656295 96 95 C10.86 94.67 -74.28 94.34 -162 94 C-162 78.16 -162 62.32 -162 46 C-108.54 46 -55.08 46 0 46 C0 30.82 0 15.64 0 0 Z " fill="#000000" transform="translate(162,23)"/>
<path d="M0 0 C15.84 0 31.68 0 48 0 C56.34492743 21.76987223 64.61999806 43.5624045 72.79135132 65.39782715 C74.23956011 69.26685661 75.68917649 73.13535866 77.13867188 77.00390625 C79.25622422 82.65571464 81.37342752 88.30765351 83.49014664 93.95977402 C88.65442163 107.74939506 93.82494043 121.53667252 98.99603558 135.32373714 C100.94235862 140.51300966 102.88838005 145.70239521 104.83422852 150.8918457 C110.0539326 164.81230936 115.27446459 178.73246116 120.49758911 192.65164185 C122.6355851 198.34923741 124.77320817 204.04697288 126.91075325 209.74473763 C128.35767219 213.60150743 129.80479219 217.45820151 131.25244141 221.31469727 C134.10951796 228.92615306 136.96403217 236.53855008 139.81140327 244.15364265 C141.28816956 248.10204834 142.77036006 252.04836856 144.25625324 255.99334812 C144.97903864 257.9144626 145.6995932 259.83639597 146.41917419 261.75871277 C147.30170451 264.11616898 148.18778828 266.47229906 149.07801819 268.82685852 C149.46469162 269.86327988 149.85136505 270.89970123 150.24975586 271.9675293 C150.58953964 272.87174118 150.92932343 273.77595306 151.27940369 274.70756531 C152 277 152 277 152 280 C136.49 280 120.98 280 105 280 C99.37280428 266.49473026 99.37280428 266.49473026 97.50463867 261.52880859 C96.87455147 259.85810806 96.87455147 259.85810806 96.23173523 258.15365601 C95.79819229 256.9969339 95.36464935 255.84021179 94.91796875 254.6484375 C94.45892654 253.4271817 93.99988434 252.2059259 93.52693176 250.94766235 C92.56668734 248.39192984 91.60809601 245.835585 90.65063477 243.27880859 C89.42258649 240.00010484 88.18949323 236.72332324 86.95511913 233.44699669 C85.77304777 230.30694191 84.59576801 227.1650972 83.41796875 224.0234375 C82.97430466 222.84647308 82.53064056 221.66950867 82.0735321 220.45687866 C81.66923477 219.37459991 81.26493744 218.29232117 80.84838867 217.17724609 C80.49040695 216.22304779 80.13242523 215.26884949 79.76359558 214.28573608 C79 212 79 212 79 210 C42.7 210 6.4 210 -31 210 C-31.99 213.3 -32.98 216.6 -34 220 C-34.75703558 222.18705752 -35.53614526 224.36668899 -36.34423828 226.53540039 C-36.78124054 227.71264175 -37.2182428 228.88988312 -37.66848755 230.10279846 C-38.13108978 231.33860153 -38.59369202 232.5744046 -39.0703125 233.84765625 C-39.55707434 235.15368839 -40.04363278 236.45979635 -40.52999878 237.76597595 C-41.54155148 240.48041442 -42.5553347 243.19400561 -43.57080078 245.90698242 C-44.87399409 249.3891412 -46.17177305 252.87328922 -47.46797371 256.35805607 C-48.46791718 259.04472497 -49.47050698 261.73040007 -50.47393417 264.41576958 C-50.95397269 265.70133636 -51.43321623 266.98720027 -51.91165543 268.27336311 C-52.57661075 270.05962417 -53.24547988 271.84442681 -53.91455078 273.62915039 C-54.29410919 274.64489639 -54.6736676 275.6606424 -55.06472778 276.70716858 C-56 279 -56 279 -57 280 C-58.47354348 280.09304018 -59.95150591 280.11746265 -61.42797852 280.11352539 C-62.36887833 280.11344986 -63.30977814 280.11337433 -64.27919006 280.11329651 C-65.30209641 280.10813522 -66.32500275 280.10297394 -67.37890625 280.09765625 C-68.941605 280.09553383 -68.941605 280.09553383 -70.53587341 280.09336853 C-73.87811094 280.0877508 -77.22028257 280.0751953 -80.5625 280.0625 C-82.82226466 280.05748728 -85.08203037 280.05292398 -87.34179688 280.04882812 C-92.89455391 280.03777561 -98.44727225 280.02102024 -104 280 C-102.52127564 272.17523582 -99.908734 264.97898717 -97.06640625 257.55859375 C-96.5603893 256.22366354 -96.05495305 254.88851309 -95.55004883 253.55316162 C-94.4646496 250.68583771 -93.37554398 247.81996093 -92.28347778 244.95516968 C-90.52957613 240.35377257 -88.78436681 235.74910958 -87.04077148 231.14379883 C-86.4393008 229.55539879 -85.83781448 227.96700466 -85.23631287 226.37861633 C-84.93550749 225.58426996 -84.63470211 224.78992359 -84.32478142 223.97150612 C-83.39907732 221.52794141 -82.47255359 219.08468895 -81.54579163 216.64152527 C-75.45452777 200.58118366 -69.42088248 184.49944379 -63.39647293 168.41392899 C-61.99658479 164.67669554 -60.59581559 160.93979238 -59.19506836 157.20288086 C-57.21878054 151.93040875 -55.24266198 146.6578733 -53.26684093 141.38522625 C-49.5243741 131.39820895 -45.78011644 121.41186382 -42.03515625 111.42578125 C-41.74784323 110.65963816 -41.4605302 109.89349506 -41.16451073 109.10413551 C-38.30842861 101.48818601 -35.4521871 93.8722963 -32.59574413 86.25648212 C-31.21482135 82.57465257 -29.8339587 78.89280047 -28.453125 75.2109375 C-28.18351267 74.49205038 -27.91390034 73.77316326 -27.63611794 73.03249168 C-23.90159094 63.07454408 -20.17014782 53.11544576 -16.44096756 43.15549469 C-14.95418696 39.18491079 -13.46685943 35.21453173 -11.97951317 31.2441597 C-10.82022466 28.14932926 -9.66148868 25.05429358 -8.503479 21.95898438 C-7.25067552 18.61031654 -5.99657898 15.26213574 -4.7421875 11.9140625 C-4.37381775 10.92830231 -4.005448 9.94254211 -3.62591553 8.9269104 C-3.29158508 8.03531219 -2.95725464 7.14371399 -2.61279297 6.22509766 C-2.32338837 5.45187164 -2.03398376 4.67864563 -1.73580933 3.88198853 C-1 2 -1 2 0 0 Z M23 66 C19.78177275 74.52981315 16.5644542 83.05996841 13.34818459 91.59051991 C11.85347068 95.55488868 10.35848478 99.51915436 8.86279297 103.4831543 C2.92866942 119.21088418 -2.99859494 134.94107071 -8.8515625 150.69921875 C-9.27601654 151.83913773 -9.70047058 152.9790567 -10.13778687 154.15351868 C-10.51851349 155.18139999 -10.89924011 156.20928131 -11.29150391 157.26831055 C-11.62372955 158.16390182 -11.9559552 159.0594931 -12.29824829 159.98222351 C-13.05474762 161.80136427 -13.05474762 161.80136427 -13 163 C11.42 163 35.84 163 61 163 C56.60323233 150.43780667 52.168861 137.92350862 47.48046875 125.47265625 C46.88973982 123.89902827 46.29919322 122.32533182 45.70881653 120.75157166 C44.48925911 117.50192827 43.26831151 114.25281248 42.04614258 111.00415039 C40.48305215 106.84926284 38.92241998 102.69345744 37.36266613 98.53731632 C35.86104166 94.53630527 34.35833749 90.53570006 32.85546875 86.53515625 C32.43091935 85.40472239 32.43091935 85.40472239 31.9977932 84.25145149 C31.1972799 82.1206182 30.39601036 79.99007095 29.59448242 77.85961914 C29.14038498 76.65197403 28.68628754 75.44432892 28.21842957 74.2000885 C27.17311782 71.45467737 26.10156628 68.72323137 25 66 C24.34 66 23.68 66 23 66 Z " fill="#000000" transform="translate(360,209)"/>
</svg>
