<?xml version="1.0" encoding="UTF-8"?>
<svg version="1.1" xmlns="http://www.w3.org/2000/svg" width="512" height="512">
<path d="M0 0 C0.73154297 -0.02900391 1.46308594 -0.05800781 2.21679688 -0.08789062 C16.64137942 -0.24857578 30.78772062 7.54360266 43.8125 13 C45.85872642 13.85198043 47.90519878 14.70337037 49.9519043 15.55419922 C54.13437068 17.29377169 58.31553092 19.03642641 62.49560547 20.78173828 C68.0781178 23.11188324 73.66486782 25.43165157 79.25390625 27.74609375 C80.09861481 28.09590805 80.94332336 28.44572235 81.81362915 28.80613708 C83.49744559 29.50340452 85.18127321 30.20064496 86.8651123 30.89785767 C91.07356726 32.64107827 95.28091427 34.38696801 99.48828125 36.1328125 C108.82321497 40.00605065 118.15897898 43.87728396 127.4949646 47.74798584 C131.76751109 49.51940689 136.04000282 51.29096002 140.3125 53.0625 C142.02083307 53.77083397 143.7291664 54.4791673 145.4375 55.1875 C196.68749996 76.43749998 196.68749996 76.43749998 199.24992371 77.49996948 C200.9585103 78.20840708 202.66709795 78.91684214 204.37568665 79.62527466 C208.64265374 81.39449191 212.90960261 83.16375309 217.17651367 84.93310547 C224.91013585 88.13994198 232.64389642 91.34644277 240.37832642 94.55133057 C258.18164816 101.92845854 275.98095116 109.31490486 293.76763916 116.73205566 C310.95369168 123.89817287 328.15500377 131.02737196 345.35693359 138.15527344 C350.51558633 140.29292813 355.67385494 142.43150847 360.83203125 144.5703125 C361.67778214 144.92094254 362.52353302 145.27157257 363.39491272 145.63282776 C367.63720468 147.39168876 371.87913462 149.15141353 376.12036133 150.9128418 C384.08027295 154.21761348 392.04343877 157.51379211 400.01861572 160.78158569 C403.75973355 162.31507447 407.49895103 163.85316657 411.23803711 165.39160156 C413.01037071 166.11932107 414.78361912 166.84481739 416.55786133 167.56787109 C451.17802424 181.67889942 451.17802424 181.67889942 459.5625 199.3125 C459.975 200.16972656 460.3875 201.02695313 460.8125 201.91015625 C465.56953668 213.65409054 465.54776097 228.95618412 460.82421875 240.70703125 C451.38029516 260.20887966 435.47816499 267.47750276 416.25 275.25 C414.68213135 275.89240568 413.11467802 276.53582578 411.54760742 277.18017578 C408.24409558 278.53735202 404.93868864 279.88975487 401.63183594 281.23876953 C394.0524965 284.33433248 386.49495573 287.4824432 378.9347229 290.6242981 C374.62036448 292.41630226 370.30427616 294.20412922 365.98828125 295.9921875 C356.53155451 299.91063211 347.07564454 303.83104428 337.6199646 307.75201416 C333.35084456 309.52226011 329.08166948 311.29237329 324.8125 313.0625 C323.1041664 313.7708327 321.39583307 314.47916603 319.6875 315.1875 C302.60416667 322.27083333 285.52083333 329.35416667 268.4375 336.4375 C267.59190018 336.78811493 266.74630035 337.13872986 265.87507629 337.49996948 C264.1664897 338.20840708 262.45790205 338.91684214 260.74931335 339.62527466 C256.48234626 341.39449191 252.21539739 343.16375309 247.94848633 344.93310547 C240.21486415 348.13994198 232.48110358 351.34644277 224.74667358 354.55133057 C207.67909551 361.62358986 190.61413354 368.70187112 173.5625 375.8125 C155.64159277 383.28562099 137.70574058 390.72250424 119.76806641 398.15527344 C112.90187672 401.00050132 106.03636287 403.84735859 99.17089844 406.69433594 C95.77717797 408.10162267 92.38328805 409.50849959 88.98925781 410.91503906 C81.08643308 414.19041019 73.18470934 417.4683589 65.28689575 420.75579834 C61.61552645 422.28380104 57.94352737 423.81028704 54.27148438 425.33666992 C52.54574854 426.05450598 50.82031072 426.773059 49.09521484 427.49243164 C40.32110636 431.15106933 31.53044089 434.76252428 22.68359375 438.2421875 C21.94037369 438.53739288 21.19715363 438.83259827 20.43141174 439.13674927 C8.50252371 443.78627405 -5.76036805 444.31272063 -17.765625 439.5703125 C-31.34398098 433.17816246 -40.77482589 424.09924843 -46.25 409.9375 C-51.98452244 392.43211571 -47.03037719 375.16835731 -42.45501709 357.95974731 C-41.5678508 354.6002027 -40.70923918 351.23336574 -39.84765625 347.8671875 C-38.29349943 341.80942181 -36.72376631 335.75586361 -35.14453125 329.70458984 C-30.68688534 312.61810776 -26.29087728 295.51567811 -21.90444183 278.41079617 C-20.2690185 272.0371172 -18.62237888 265.6664714 -16.96668243 259.2980299 C-15.92537831 255.28586978 -14.89193554 251.27171257 -13.86030579 247.25705528 C-13.37525968 245.3765152 -12.88687709 243.49683211 -12.39494324 241.61808205 C-11.71661262 239.02559075 -11.05032433 236.43027765 -10.38671875 233.83398438 C-10.18740501 233.08418651 -9.98809128 232.33438864 -9.78273773 231.56186962 C-7.87127599 223.97843499 -8.12297306 217.54140832 -10.07958984 209.89599609 C-10.25585278 209.19635679 -10.43211571 208.49671749 -10.61371994 207.775877 C-11.19957554 205.46015562 -11.79893022 203.14815883 -12.3984375 200.8359375 C-12.821279 199.17645636 -13.24328622 197.51676245 -13.66452026 195.85687256 C-14.80044117 191.39074906 -15.94811924 186.9277239 -17.09803772 182.46518707 C-18.29330202 177.81823749 -19.47753924 173.16847924 -20.66308594 168.51904297 C-23.33712823 158.04145334 -26.02762369 147.56812735 -28.72169495 137.09567261 C-29.87630563 132.6063486 -31.02939448 128.11663383 -32.18261719 123.62695312 C-36.80519795 105.62765301 -36.80519795 105.62765301 -41.44518471 87.63283539 C-42.17421143 84.8119883 -42.90236369 81.99091577 -43.63049698 79.16983795 C-44.12471236 77.25690469 -44.6204216 75.34435757 -45.11618042 73.43182373 C-45.40945221 72.29561584 -45.702724 71.15940796 -46.00488281 69.98876953 C-46.25908997 69.00667511 -46.51329712 68.02458069 -46.77520752 67.01272583 C-49.60786835 55.46371361 -50.46096762 41.33565566 -45.4375 30.3125 C-45.10878906 29.57257813 -44.78007813 28.83265625 -44.44140625 28.0703125 C-37.7148346 14.61716921 -26.456341 6.03387132 -12.4375 1.3125 C-8.30788687 0.15429745 -4.26572493 0.05381486 0 0 Z M-13.8125 37.8125 C-18.44881257 44.94528857 -18.32221721 51.39959495 -16.82260132 59.7270813 C-15.93883791 63.5179483 -14.96224021 67.27745445 -13.94921875 71.03515625 C-13.57354355 72.47295745 -13.19924988 73.9111202 -12.82621765 75.34960938 C-12.02587121 78.42510608 -11.21674417 81.4980964 -10.40032959 84.56936646 C-9.10855916 89.42926273 -7.8357652 94.29399336 -6.56689453 99.15991211 C-6.13027192 100.83370043 -5.69362622 102.50748273 -5.25695801 104.18125916 C-5.0382756 105.01956709 -4.8195932 105.85787502 -4.59428406 106.72158623 C-3.92074212 109.30054456 -3.24520915 111.87897439 -2.56921387 114.45729065 C0.69136665 126.90342694 3.87654556 139.36742942 7.01953125 151.84375 C7.23877825 152.71352415 7.45802525 153.5832983 7.68391609 154.47942924 C9.60961366 162.11994522 11.53175706 169.76135165 13.44961548 177.40383911 C14.43827682 181.34287284 15.4301887 185.28107498 16.4243679 189.21871948 C16.78974491 190.66875286 17.15381089 192.11911727 17.51650429 193.56982422 C18.0099753 195.54351321 18.50802585 197.51605556 19.00634766 199.48852539 C19.28435211 200.59547256 19.56235657 201.70241974 19.8487854 202.84291077 C20.3249858 205.23598129 20.3249858 205.23598129 21.5625 206.3125 C23.53588197 206.41268078 25.51289331 206.44159742 27.48881531 206.44380188 C28.77729874 206.44781006 30.06578217 206.45181824 31.39331055 206.45594788 C32.83471682 206.45547272 34.27612307 206.45493659 35.7175293 206.4543457 C37.22516482 206.45737556 38.73279942 206.46089653 40.24043274 206.46487427 C43.49529307 206.47277833 46.75014237 206.4779139 50.0050106 206.48116493 C55.15252936 206.48706386 60.29997856 206.50359453 65.44746399 206.52250671 C67.2083654 206.52884463 68.96926685 206.53517025 70.73016834 206.54148388 C71.61223284 206.54464969 72.49429734 206.5478155 73.40309107 206.55107725 C85.3916804 206.59317875 97.3802382 206.62612002 109.36889648 206.63842773 C117.44853804 206.64680779 125.52800837 206.66929915 133.60756427 206.7077834 C137.88461625 206.72755147 142.16141222 206.73994633 146.4385128 206.73494911 C150.46464435 206.73030279 154.49029116 206.74410681 158.516325 206.77196121 C159.99250447 206.77887418 161.46873404 206.77899836 162.94491196 206.77176094 C164.96369953 206.76286457 166.98255178 206.78092509 169.00126648 206.80024719 C170.13008586 206.80263555 171.25890524 206.8050239 172.42193127 206.80748463 C176.31712753 207.43384697 178.48814903 208.88235227 181.5625 211.3125 C184.57834552 215.7357401 185.47779805 220.0444512 184.5625 225.3125 C182.76618745 230.16061237 180.22603444 233.07122158 175.5625 235.3125 C172.54218578 235.69726086 172.54218578 235.69726086 169.11479187 235.71122742 C167.81213882 235.72376556 166.50948578 235.73630371 165.1673584 235.7492218 C163.73095678 235.74804784 162.29455537 235.74658872 160.8581543 235.74487305 C159.34018659 235.75389259 157.82222618 235.76422029 156.30427551 235.77575684 C152.18898111 235.80333051 148.07382489 235.81261183 143.95845008 235.81861091 C139.65557872 235.82799362 135.35281062 235.85419694 131.05000305 235.87861633 C122.90451756 235.92228784 114.7590521 235.9508308 106.61348516 235.97393972 C97.33900019 236.00098789 88.06461906 236.04489964 78.79020822 236.09022844 C59.71436029 236.18308404 40.63848491 236.25476059 21.5625 236.3125 C19.60453192 241.98060576 17.86979567 247.64444494 16.42456055 253.46362305 C16.13538537 254.60984241 16.13538537 254.60984241 15.84036827 255.77921772 C15.206839 258.29343834 14.57809013 260.80882944 13.94921875 263.32421875 C13.49827412 265.11630015 13.04696692 266.90829036 12.59532166 268.70019531 C11.39144795 273.47961158 10.19139324 278.25997789 8.99237823 283.04061508 C6.76129783 291.9344988 4.52454215 300.82695426 2.28515625 309.71875 C2.0391291 310.6961231 1.79310196 311.67349621 1.53961945 312.68048668 C-1.40434202 324.36845929 -4.38652499 336.04442029 -7.4822216 347.69318199 C-7.99456966 349.62111698 -8.50506124 351.54954501 -9.01551819 353.47798157 C-10.51732918 359.14694405 -12.03325745 364.81137145 -13.57543945 370.46948242 C-18.58011631 386.76708939 -18.58011631 386.76708939 -15.3125 402.8125 C-12.18058317 407.09219316 -8.46522212 409.63659263 -3.4375 411.3125 C4.58715606 412.01515645 10.39205795 409.87188006 17.75 406.8125 C18.9563208 406.32475098 20.1626416 405.83700195 21.40551758 405.33447266 C25.46891622 403.68686239 29.51665408 402.00267486 33.5625 400.3125 C34.27567383 400.01500854 34.98884766 399.71751709 35.72363281 399.41101074 C43.50781999 396.16197 51.28126919 392.88778987 59.0486145 389.59870911 C69.97019756 384.97412338 80.91639632 380.41109682 91.875 375.875 C92.7247641 375.52314636 93.5745282 375.17129272 94.45004272 374.80877686 C98.76282636 373.02310449 103.07590354 371.23814284 107.38916016 369.45361328 C115.09559186 366.26477631 122.79920153 363.06913356 130.50302124 359.87399292 C134.77273149 358.1032155 139.04262502 356.33288016 143.3125 354.5625 C145.02083421 353.85416878 146.72916754 353.14583545 148.4375 352.4375 C174.0625 341.8125 174.0625 341.8125 199.6875 331.1875 C200.53309982 330.83688507 201.37869965 330.48627014 202.24992371 330.12503052 C203.9585103 329.41659292 205.66709795 328.70815786 207.37568665 327.99972534 C211.64265374 326.23050809 215.90960261 324.46124691 220.17651367 322.69189453 C227.91013585 319.48505802 235.64389642 316.27855723 243.37832642 313.07366943 C260.44590449 306.00141014 277.51086646 298.92312888 294.5625 291.8125 C311.59290036 284.71072547 328.63661428 277.64127863 345.68322754 270.57852173 C351.00022769 268.37528001 356.31625439 266.1697084 361.63145447 263.96212769 C365.19217218 262.48326551 368.75318822 261.00512228 372.31417847 259.5269165 C374.90843432 258.44957043 377.50219602 257.37104074 380.09594727 256.29248047 C387.67705123 253.14322971 395.26421061 250.01465885 402.890625 246.9765625 C404.15055809 246.47250524 405.41048663 245.96843663 406.67041016 245.46435547 C408.92195094 244.56692751 411.17658101 243.67718818 413.43505859 242.79736328 C421.2236265 239.69138299 428.39072953 236.62293342 431.90234375 228.55078125 C433.82379307 222.03604481 433.06694479 216.23494021 430.12109375 210.19921875 C425.85944331 205.04037874 419.87203744 202.3150896 413.7890625 199.921875 C413.04528854 199.62024948 412.30151459 199.31862396 411.53520203 199.00785828 C409.92953758 198.35793195 408.32217113 197.71219751 406.71328735 197.07028198 C404.1299318 196.03953045 401.55117718 194.99795986 398.97338867 193.95336914 C396.25894439 192.85350597 393.54425903 191.75428971 390.82823181 190.65834045 C381.15068293 186.75249579 371.51170978 182.75530122 361.875 178.75 C360.1486394 178.03343435 358.42223961 177.31696309 356.69580078 176.60058594 C344.91168869 171.70968588 333.13390218 166.80363162 321.35791016 161.89321899 C304.17168303 154.72698956 286.97018503 147.59770627 269.76806641 140.46972656 C262.05149282 137.2721146 254.3357579 134.07248004 246.6199646 130.87298584 C242.35084456 129.10273989 238.08166948 127.33262671 233.8125 125.5625 C232.1041664 124.8541673 230.39583307 124.14583397 228.6875 123.4375 C227.841875 123.086875 226.99625 122.73625 226.125 122.375 C177.43749995 102.18749998 177.43749995 102.18749998 174.87507629 101.12503052 C173.1664897 100.41659292 171.45790205 99.70815786 169.74931335 98.99972534 C165.48234626 97.23050809 161.21539739 95.46124691 156.94848633 93.69189453 C149.21486415 90.48505802 141.48110358 87.27855723 133.74667358 84.07366943 C117.41271749 77.30539966 101.08017793 70.53392115 84.76132202 63.72930908 C78.83410855 61.25792982 72.9061813 58.78826303 66.97814941 56.31884766 C65.31168694 55.62460759 63.64526701 54.93026542 61.97888184 54.23583984 C56.52309786 51.96240981 51.06632782 49.69137051 45.60839844 47.4230957 C43.86557942 46.69840798 42.12305251 45.97301726 40.38085938 45.24682617 C35.57038532 43.24199037 30.75386645 41.25312777 25.92858887 39.28417969 C24.32249397 38.62460607 22.71912869 37.95835397 21.11828613 37.28613281 C18.72262018 36.28034712 16.31943476 35.29480553 13.9140625 34.3125 C13.20559174 34.00940918 12.49712097 33.70631836 11.7671814 33.39404297 C2.37194178 29.6188223 -6.6380744 30.26047305 -13.8125 37.8125 Z " fill="#000000" transform="translate(48.4375,34.6875)"/>
</svg>
